<svg width="13" height="14" viewBox="0 0 13 14" fill="none" xmlns="http://www.w3.org/2000/svg">
<path d="M6.66602 2.9248C6.38477 2.9248 6.15625 2.69629 6.15625 2.41504V1.15527C6.15625 0.874023 6.38477 0.645508 6.66602 0.645508C6.94141 0.645508 7.16992 0.874023 7.16992 1.15527V2.41504C7.16992 2.69629 6.94141 2.9248 6.66602 2.9248ZM9.53711 4.12598C9.34375 3.93262 9.34375 3.61035 9.53711 3.41113L10.4395 2.50879C10.6387 2.31543 10.9609 2.31543 11.1543 2.50879C11.3477 2.70801 11.3477 3.03613 11.1543 3.22949L10.2578 4.12598C10.0586 4.3252 9.73633 4.31934 9.53711 4.12598ZM3.7832 4.12598C3.58398 4.31934 3.26172 4.31934 3.06836 4.12598L2.17188 3.22363C1.98438 3.03613 1.98438 2.70801 2.17773 2.50879C2.37109 2.31543 2.69922 2.32129 2.89258 2.50879L3.78906 3.41113C3.97656 3.60449 3.97656 3.93848 3.7832 4.12598ZM6.66016 9.99121C5.03125 9.99121 3.67773 8.6377 3.67773 7.00293C3.67773 5.3623 5.03125 4.00879 6.66016 4.00879C8.28906 4.00879 9.64258 5.3623 9.64258 7.00293C9.64258 8.6377 8.28906 9.99121 6.66016 9.99121ZM10.7266 7.00293C10.7266 6.72754 10.9609 6.49316 11.2363 6.49316H12.4961C12.7715 6.49316 13 6.72754 13 7.00293C13 7.27832 12.7715 7.50684 12.4961 7.50684H11.2363C10.9609 7.50684 10.7266 7.27832 10.7266 7.00293ZM2.59961 7.00293C2.59961 7.27832 2.36523 7.50684 2.08984 7.50684H0.830078C0.554688 7.50684 0.326172 7.27832 0.326172 7.00293C0.326172 6.72754 0.554688 6.49316 0.830078 6.49316H2.08984C2.36523 6.49316 2.59961 6.72754 2.59961 7.00293ZM3.78906 9.87988C3.97656 10.0791 3.97656 10.4014 3.7832 10.5947L2.88672 11.4971C2.6875 11.6846 2.35938 11.6787 2.16602 11.4912C1.97852 11.292 1.97852 10.9697 2.17188 10.7764L3.06836 9.87988C3.26172 9.69238 3.58984 9.69238 3.78906 9.87988ZM9.53711 9.87988C9.73633 9.69238 10.0586 9.69238 10.252 9.87988L11.1543 10.7822C11.3477 10.9756 11.3477 11.2979 11.1543 11.4971C10.9609 11.6846 10.6387 11.6904 10.4395 11.5029L9.53711 10.5947C9.34375 10.4014 9.34375 10.0791 9.53711 9.87988ZM6.66602 11.0811C6.94141 11.0811 7.16992 11.3096 7.16992 11.585V12.8506C7.16992 13.126 6.94141 13.3545 6.66602 13.3545C6.38477 13.3545 6.15625 13.126 6.15625 12.8506V11.585C6.15625 11.3096 6.38477 11.0811 6.66602 11.0811Z" fill="#212121"/>
</svg>
